<svg width="179" height="36" viewBox="0 0 179 36" fill="none" xmlns="http://www.w3.org/2000/svg">
<path d="M39.8581 26.1818C39.7305 26.0144 39.6936 25.8342 39.7475 25.6413C39.8014 25.4483 39.9559 25.3149 40.2112 25.2412C41.0335 24.9971 41.5936 24.763 41.8928 24.5388C42.1905 24.3147 42.3876 23.9415 42.484 23.4194C42.5804 22.8972 42.64 21.9509 42.6627 20.5831C42.7251 16.5068 42.7251 12.2518 42.6627 7.04464C42.6513 6.30118 42.5875 5.74925 42.4713 5.39171C42.355 5.03416 42.1352 4.74756 41.812 4.53189C41.4887 4.31623 40.9556 4.08922 40.2112 3.85086C39.9673 3.76573 39.8099 3.62668 39.739 3.43372C39.6681 3.24076 39.6936 3.06482 39.8156 2.90591C39.9375 2.747 40.1318 2.67039 40.3983 2.67606C41.6517 2.71012 42.9151 2.72714 44.1855 2.72714C45.4559 2.72714 46.7178 2.71012 47.9726 2.67606C48.2335 2.67039 48.4249 2.747 48.5469 2.90591C48.6688 3.06482 48.6943 3.24076 48.6234 3.43372C48.5525 3.62668 48.3952 3.76573 48.1513 3.85086C47.4083 4.08922 46.878 4.31481 46.5604 4.52764C46.2428 4.74046 46.0273 5.02565 45.9139 5.38319C45.8004 5.74074 45.7381 6.29408 45.7267 7.04464C45.6643 12.2518 45.6643 16.5054 45.7267 20.5831C45.7551 21.958 45.8175 22.9043 45.9139 23.4236C46.0103 23.9429 46.206 24.3147 46.5009 24.5388C46.7958 24.763 47.3544 24.9985 48.1768 25.2412C48.432 25.3149 48.5866 25.4483 48.6405 25.6413C48.6943 25.8342 48.6589 26.0144 48.5341 26.1818C48.4093 26.3493 48.242 26.4273 48.0322 26.4159C47.1531 26.3932 46.2811 26.3791 45.419 26.3734C44.557 26.3677 43.7006 26.3677 42.8484 26.3734C41.8205 26.3847 40.9938 26.3989 40.3629 26.4159C40.153 26.4273 39.9843 26.3493 39.8567 26.1818H39.8581ZM71.2641 16.4855C71.4513 16.3664 71.681 16.3068 71.9532 16.3068H82.0726C82.2938 16.3068 82.4753 16.2798 82.6171 16.2259C82.7588 16.172 82.8638 16.0826 82.9318 15.9577C82.9999 15.8329 83.0339 15.6626 83.0339 15.447C83.0736 14.1189 82.7943 12.9456 82.1959 11.9297C81.5976 10.9138 80.771 10.1278 79.7147 9.57158C78.6598 9.0154 77.4914 8.73731 76.2083 8.73731C74.6869 8.73731 73.2647 9.11897 71.9404 9.88231C70.6161 10.6471 69.5542 11.7268 68.7573 13.1229C67.9605 14.5205 67.562 16.1436 67.562 17.9271C67.562 19.7105 67.9151 21.2812 68.6212 22.6404C69.3273 23.9997 70.3156 25.0539 71.5831 25.8044C72.8507 26.555 74.2998 26.9296 75.9275 26.9296C76.7839 26.9296 77.6304 26.8161 78.4641 26.589C79.2978 26.362 80.0904 25.9704 80.8419 25.4143C81.5934 24.8581 82.2215 24.1174 82.7262 23.1924C82.8227 22.9994 82.8397 22.8362 82.7773 22.7029C82.7149 22.5695 82.6029 22.5 82.4455 22.4943C82.2867 22.49 82.1364 22.5567 81.9946 22.6986C81.5054 23.2151 80.9879 23.6407 80.4364 23.9756C79.8862 24.3104 79.3233 24.5559 78.7477 24.7119C78.172 24.868 77.5921 24.946 77.0079 24.946C75.9133 24.946 74.9151 24.6921 74.0162 24.1841C73.1159 23.6762 72.3786 22.8916 71.8029 21.8331C71.2258 20.7747 70.8785 19.4523 70.7593 17.8689C70.7367 17.5341 70.7679 17.2503 70.8529 17.0176C70.938 16.7863 71.0741 16.609 71.2613 16.4898L71.2641 16.4855ZM71.0089 14.0338C71.2187 13.069 71.569 12.2631 72.0595 11.6147C72.5501 10.9677 73.1187 10.4881 73.7653 10.176C74.4118 9.86386 75.0966 9.70779 75.7489 9.70779C76.4011 9.70779 77.0221 9.85535 77.6091 10.1505C78.1975 10.4456 78.691 10.911 79.0908 11.5466C79.4906 12.1836 79.7288 12.981 79.8012 13.9402C79.8238 14.241 79.7955 14.5006 79.7161 14.7191C79.6367 14.9376 79.5062 15.105 79.3247 15.2214C79.1433 15.3377 78.9164 15.3959 78.6442 15.3959H71.9801C71.7306 15.3959 71.5222 15.3434 71.3549 15.2341C71.1876 15.1263 71.0727 14.9688 71.0103 14.7617C70.9479 14.5545 70.9479 14.3119 71.0103 14.0324L71.0089 14.0338ZM100.696 13.1343C99.9506 11.7509 98.9085 10.6698 97.5728 9.8894C96.2358 9.10904 94.7172 8.71886 93.0314 8.71886C91.3455 8.71886 89.8227 9.11046 88.4601 9.89366C87.099 10.6769 86.0327 11.7651 85.2642 13.1555C84.4957 14.5474 84.1115 16.1138 84.1115 17.8561C84.1115 19.5985 84.4858 21.1592 85.2345 22.5354C85.9831 23.9131 87.0267 24.9886 88.3666 25.7633H88.368C89.7079 26.538 91.2406 26.9253 92.9293 26.9253C94.618 26.9253 96.1422 26.538 97.4949 25.7633C98.8475 24.9886 99.9053 23.9103 100.668 22.5269C101.431 21.145 101.814 19.5644 101.814 17.8221C101.814 16.0798 101.441 14.5162 100.694 13.1328L100.696 13.1343ZM97.8479 22.273C97.3885 23.4903 96.7576 24.4097 95.9579 25.0283C95.1568 25.6484 94.299 25.9577 93.3447 25.9577C92.3905 25.9577 91.4788 25.6384 90.6082 24.9985C89.7376 24.3601 89.0174 23.4137 88.446 22.158C87.8746 20.9024 87.5569 19.4041 87.4875 17.6603C87.4194 15.9748 87.6151 14.5304 88.0745 13.3286C88.5339 12.1269 89.1634 11.2217 89.9645 10.6073C90.7656 9.99297 91.6234 9.68793 92.5777 9.68793C93.5319 9.68793 94.4436 10.0043 95.3142 10.6371C96.1847 11.2699 96.905 12.2049 97.4764 13.4436C98.0478 14.6808 98.3654 16.1606 98.4349 17.8803C98.503 19.5885 98.3073 21.0528 97.8479 22.2701V22.273ZM133.458 10.0128H133.464C133.234 9.14877 132.529 8.71745 131.35 8.71745C130.913 8.71745 130.48 8.79123 130.051 8.93878C129.623 9.08634 129.203 9.28072 128.792 9.52192C128.38 9.76312 127.911 10.071 127.382 10.4456C127.038 10.6953 126.72 10.8187 126.429 10.8159C126.14 10.8131 125.912 10.7038 125.745 10.4881C125.577 10.2725 125.494 9.98304 125.494 9.61982C125.494 9.34741 125.455 9.13458 125.379 8.98135C125.302 8.82812 125.179 8.73447 125.009 8.70042C124.839 8.66637 124.617 8.66921 124.345 8.79406C123.795 9.05513 123.248 9.31761 122.699 9.58293C122.693 9.58577 122.689 9.58719 122.682 9.59003C119.38 11.1295 117.884 11.7254 115.978 10.2923C115.975 10.2909 115.973 10.2881 115.968 10.2853C114.959 9.53327 113.819 9.06932 112.58 8.85649C111.878 8.73731 111.165 8.68481 110.454 8.68481C108.746 8.68481 107.39 8.97 106.225 9.54037C105.061 10.1107 104.197 10.884 103.63 11.8616C103.063 12.8391 102.781 13.9402 102.781 15.166C102.781 16.4586 103.121 17.7753 103.864 18.8422C104.722 20.0738 105.747 20.3689 105.747 20.9251C105.747 21.3181 104.665 21.4429 104.014 22.4077C103.661 22.9313 103.483 23.5315 103.483 24.2125C103.483 25.2014 103.928 26.1166 104.657 26.7919C104.875 26.9934 105.083 27.246 105.068 27.5666C105.052 27.8859 104.804 28.1469 104.537 28.2916C103.212 29.0096 102.197 30.1702 102.197 31.7408C102.197 33.8293 103.963 35.0793 105.809 35.5688C106.89 35.8554 108.081 35.9987 109.38 35.9987C111.366 35.9987 113.161 35.671 114.767 35.0155C116.374 34.36 117.63 33.4874 118.538 32.3963C119.445 31.3067 119.899 30.1333 119.899 28.879C119.899 28.0902 119.72 27.3935 119.363 26.7934C118.406 25.1816 116.282 24.8339 114.572 24.8339H108.716C108.206 24.8339 107.755 24.7488 107.363 24.5786C106.802 24.3345 106.412 23.9642 106.194 23.4676C105.992 23.0079 105.89 22.2914 106.318 21.9183C106.695 21.5877 107.329 21.599 107.8 21.5976C108.344 21.5777 109.744 21.7423 110.039 21.7707C110.67 21.8303 111.313 21.8331 111.94 21.748C113.33 21.5763 114.535 21.0996 115.55 20.3192C117.131 19.1061 118.214 17.1992 118.209 15.1675C118.206 14.3389 117.936 13.4124 118.529 12.7143C119.439 11.6388 121.246 12.1411 122.041 13.086C122.564 13.7075 122.683 14.5233 122.71 15.3093C122.777 17.1779 122.756 19.0607 122.71 20.9307C122.682 22.2077 122.625 23.0959 122.54 23.5925C122.455 24.0891 122.275 24.4466 121.999 24.6651C121.724 24.8836 121.223 25.0837 120.496 25.2653C120.252 25.3277 120.099 25.4483 120.036 25.6271C119.974 25.8058 119.998 25.9719 120.109 26.1251C120.219 26.2783 120.378 26.3549 120.581 26.3549C121.705 26.3379 122.95 26.3294 124.317 26.3294C125.684 26.3294 127.109 26.3379 128.589 26.3549C128.821 26.3549 128.997 26.2741 129.116 26.1123C129.235 25.9506 129.262 25.7817 129.193 25.6058C129.123 25.4299 128.969 25.3164 128.724 25.2653C127.618 25.0383 126.869 24.8226 126.476 24.6183C126.085 24.414 125.828 24.0706 125.706 23.5882C125.584 23.1058 125.512 22.2205 125.488 20.9307C125.454 19.2267 125.454 17.5298 125.488 15.8386C125.511 14.5559 125.745 13.5103 126.19 12.7044C126.635 11.8985 127.212 11.3153 127.923 11.1507C128.631 10.9862 129.369 11.2728 130.136 11.819C131.168 12.5511 132.039 12.649 132.743 12.1127C133.451 11.5764 133.688 10.8769 133.458 10.0128ZM108.473 27.7667H112.729C114.071 27.7667 115.876 27.8887 116.726 29.1046C117.453 30.1461 117.331 31.7976 116.55 32.7751C115.32 34.3188 112.816 34.4011 111.017 34.4011C108.798 34.4011 107.18 34.0762 106.161 33.4264C105.141 32.7766 104.634 31.843 104.634 30.6285C104.634 29.5955 104.971 28.8606 105.648 28.4222C106.323 27.9852 107.264 27.7667 108.473 27.7667ZM114.305 18.1811C113.981 19.0551 113.508 19.7503 112.887 20.2682C112.266 20.786 111.532 21.0513 110.685 21.0641C109.812 21.0769 109.045 20.8272 108.384 20.315C107.722 19.8042 107.214 19.0948 106.854 18.1896C106.496 17.2858 106.317 16.2642 106.317 15.1277C106.317 14.092 106.474 13.1399 106.789 12.273C107.104 11.4047 107.569 10.7109 108.183 10.1902C108.797 9.66948 109.541 9.40274 110.413 9.38997C111.274 9.3772 112.037 9.62266 112.7 10.1249C113.365 10.6272 113.88 11.3295 114.244 12.2319C114.609 13.1328 114.792 14.1516 114.792 15.2881C114.792 16.3422 114.63 17.307 114.305 18.1796H114.307L114.305 18.1811ZM178.96 25.6242H178.958C178.89 25.4483 178.734 25.3291 178.49 25.2667C177.745 25.0851 177.235 24.8836 176.957 24.6623C176.679 24.4409 176.503 24.0891 176.43 23.6067C176.356 23.1243 176.313 22.2332 176.302 20.9336C176.279 19.729 176.268 18.5258 176.268 17.3227C176.268 16.1195 176.279 14.8894 176.302 13.6351C176.325 11.9368 175.826 10.6669 174.805 9.82413C173.782 8.98135 172.488 8.64083 170.92 8.80116C169.352 8.9629 167.813 9.59712 166.303 10.7052C165.759 11.0968 165.301 11.277 164.929 11.2458C164.558 11.2146 164.222 10.9862 163.921 10.5605C163.337 9.76029 162.568 9.22539 161.614 8.95581C160.661 8.68623 159.622 8.68056 158.496 8.93878C157.369 9.19701 156.253 9.68651 155.147 10.4073C154.756 10.6683 154.408 10.8031 154.104 10.8116C153.8 10.8202 153.568 10.718 153.406 10.5052C153.246 10.2923 153.165 9.99865 153.165 9.62408C153.165 9.35166 153.127 9.13458 153.049 8.97284C152.972 8.81109 152.847 8.71461 152.674 8.68339C152.501 8.65218 152.282 8.68765 152.015 8.78981C151.595 8.99979 151.173 9.20978 150.748 9.41977C150.322 9.62975 149.894 9.83832 149.462 10.0455C149.03 10.2526 148.599 10.4527 148.168 10.6456C147.993 10.7194 147.872 10.823 147.807 10.9564C147.74 11.0897 147.74 11.2259 147.807 11.365C147.872 11.504 148.001 11.619 148.194 11.7098C148.84 12.0162 149.304 12.2844 149.585 12.5142C149.866 12.7441 150.064 13.0619 150.18 13.4677C150.297 13.8735 150.36 14.4878 150.372 15.3122C150.412 17.2134 150.372 20.2227 150.339 22.0672C150.26 24.3359 149.423 24.868 148.238 25.1007C145.577 25.6242 145.922 22.0232 145.918 21.45C145.901 19.0494 145.907 16.5678 145.935 13.8139C145.947 12.6902 145.727 11.7452 145.273 10.9819C144.818 10.2186 144.211 9.65104 143.451 9.27788C142.691 8.90615 141.86 8.72028 140.957 8.72028C139.811 8.72028 138.635 9.02108 137.425 9.62266C136.216 10.2242 135.213 10.9663 134.415 11.8445C133.618 12.7242 133.22 13.5429 133.22 14.2977C133.22 14.9674 133.499 15.4143 134.058 15.6385C134.618 15.8627 135.159 15.7818 135.688 15.3959C136.216 15.01 136.46 14.3786 136.42 13.5046C136.409 13.357 136.4 13.2208 136.394 13.096C136.366 12.7044 136.352 12.4092 136.352 12.2092C136.352 11.7438 136.488 11.3621 136.76 11.0642C137.032 10.7662 137.398 10.5463 137.858 10.4044C138.317 10.2626 138.839 10.1859 139.423 10.1746C140.337 10.1632 141.069 10.3165 141.619 10.6343C142.171 10.9521 142.564 11.3806 142.799 11.9212C143.026 12.4433 143.143 13.0534 143.151 13.7472C143.138 14.5971 143.019 15.5832 141.934 15.6541C140.163 15.7705 132.938 17.2262 132.938 23.2548C132.938 26.538 136.129 26.9253 136.98 26.9253C139.729 26.9253 141.204 25.4483 141.738 25.0184C142.008 24.7985 142.352 24.6325 142.702 24.7644C143.046 24.8935 143.217 25.2482 143.413 25.532C143.932 26.2882 144.733 27.0232 146.108 27.0232C147.284 27.0232 148.401 26.4046 149.559 26.2528C151.008 26.0641 152.428 26.3393 153.875 26.3393C154.614 26.3393 155.222 26.3649 155.222 26.3649C155.455 26.3649 155.631 26.2854 155.747 26.1265C155.863 25.9676 155.886 25.8002 155.819 25.6242C155.751 25.4483 155.595 25.3291 155.351 25.2667C154.625 25.0964 154.123 24.9021 153.848 24.6836C153.573 24.4651 153.396 24.1189 153.321 23.645C153.244 23.1711 153.192 22.3042 153.164 21.0443C153.147 20.1475 153.138 19.2736 153.138 18.4208C153.138 17.5681 153.147 16.7083 153.164 15.84C153.175 15.2384 153.234 14.6737 153.342 14.1445C153.45 13.6167 153.631 13.1215 153.887 12.6632C154.141 12.2035 154.488 11.8119 154.925 11.4884C155.974 10.7109 157.041 10.3406 158.129 10.3775C159.215 10.4144 160.115 10.8031 160.83 11.5438C161.545 12.2844 161.913 13.2393 161.936 14.4098C161.959 15.5789 161.97 16.6955 161.97 17.7611C161.97 18.8266 161.962 19.8836 161.945 20.9336C161.922 22.2162 161.869 23.1044 161.787 23.5953C161.705 24.0862 161.529 24.4424 161.26 24.6637C160.99 24.885 160.495 25.095 159.775 25.2936C159.53 25.3674 159.378 25.4894 159.316 25.6597C159.253 25.83 159.276 25.9903 159.384 26.1407C159.492 26.2911 159.648 26.3663 159.852 26.3663C161.021 26.3493 162.178 26.3407 163.324 26.3407C164.47 26.3407 165.625 26.3493 166.788 26.3663C167.021 26.3663 167.196 26.2868 167.315 26.1279C167.435 25.969 167.461 25.8016 167.392 25.6257C167.324 25.4497 167.168 25.3305 166.924 25.2681C166.192 25.0922 165.688 24.895 165.41 24.675C165.132 24.4565 164.956 24.116 164.882 23.6521C164.809 23.1895 164.758 22.3382 164.729 21.101V20.9307C164.695 19.1203 164.695 17.422 164.729 15.8386C164.746 14.8454 164.892 13.9827 165.167 13.2492C165.442 12.5171 165.883 11.9297 166.49 11.487C167.573 10.6868 168.66 10.3094 169.746 10.3548C170.832 10.4002 171.726 10.8045 172.427 11.5679C173.127 12.3312 173.489 13.3017 173.513 14.4765C173.53 15.5548 173.538 16.6288 173.538 17.7001C173.538 18.7713 173.53 19.8468 173.513 20.9322C173.49 22.2148 173.436 23.103 173.351 23.5981C173.266 24.0919 173.09 24.448 172.824 24.6665C172.557 24.885 172.064 25.0936 171.342 25.2922C171.097 25.366 170.944 25.488 170.881 25.6583C170.819 25.8285 170.842 25.9889 170.949 26.1393C171.059 26.2897 171.213 26.3649 171.419 26.3649C172.838 26.3592 173.972 26.3564 174.827 26.3564C175.682 26.3564 176.858 26.3592 178.355 26.3649C178.588 26.3649 178.763 26.2854 178.882 26.1265C179.002 25.9676 179.027 25.8002 178.959 25.6242H178.96ZM143.149 19.7347C143.149 22.5879 142.283 23.3726 140.818 24.4523C140.016 25.0454 136.926 26.1861 136.038 23.5059C135.673 22.4007 135.722 21.1294 136.189 20.061C137.078 18.0236 139.25 16.9523 141.319 16.6445C143.546 16.3124 143.151 18.3116 143.151 19.7361L143.149 19.7347ZM66.0265 24.1089C65.0269 23.8621 65.1119 22.5113 65.1119 22.0232C65.0779 14.6482 65.0779 8.22086 65.1119 0.953602C65.1119 0.675511 65.0623 0.466943 64.9631 0.327898C64.8638 0.188852 64.7249 0.11933 64.5462 0.11933C64.3676 0.11933 64.1563 0.190271 63.9124 0.332154C63.2418 0.706726 62.6122 1.03589 62.0224 1.31966C61.4326 1.60343 60.7945 1.88152 60.1068 2.15393C59.9367 2.22204 59.8176 2.32419 59.7495 2.4604C59.6815 2.59661 59.6801 2.73424 59.7453 2.87328C59.8105 3.01233 59.9395 3.13009 60.1324 3.22657C60.7576 3.52169 61.2156 3.77708 61.512 3.98848C61.8069 4.20131 62.0167 4.46237 62.1372 4.77168C62.2592 5.08098 62.3201 5.51373 62.3201 6.06991V8.5032C62.3201 8.81535 62.2677 9.06648 62.1628 9.2566C62.0578 9.44672 61.8976 9.56307 61.6863 9.60563C61.4751 9.6482 61.2142 9.60421 60.9079 9.47368C60.3011 9.22964 59.6843 9.04661 59.0604 8.92459C58.4366 8.80258 57.7815 8.74157 57.0938 8.74157C55.408 8.74157 53.9036 9.13458 52.5779 9.92203C51.2536 10.7081 50.2214 11.8176 49.4841 13.252C48.7468 14.6865 48.3767 16.3763 48.3767 18.2052C48.3767 20.034 48.7312 21.6061 49.4401 22.9242C50.1505 24.2423 51.0693 25.2383 52.1979 25.9137H52.1993C53.3294 26.5876 54.5062 26.9253 55.7313 26.9253C56.7238 26.9253 57.6043 26.7692 58.3699 26.4571C59.1356 26.1449 59.8644 25.7079 60.5577 25.1461C60.8413 24.9304 61.1206 24.8212 61.3957 24.8183C61.6708 24.8155 61.8934 24.9177 62.0635 25.1248C62.2336 25.332 62.3187 25.6171 62.3187 25.9804C62.3187 26.2698 62.3655 26.4883 62.4591 26.6359C62.5527 26.7834 62.6888 26.87 62.8674 26.8955C63.0461 26.921 63.263 26.8941 63.5182 26.8146C67.1565 25.1035 68.2015 25.0113 68.2015 24.4764C68.2015 23.5783 66.9495 24.3374 66.0236 24.1089H66.0265ZM62.3201 20.3348C62.3201 21.267 62.099 22.1098 61.6566 22.8646C61.2128 23.6208 60.6144 24.2139 59.8601 24.6452C59.1058 25.0766 58.2891 25.2922 57.4086 25.2922C56.2743 25.2922 55.2662 24.9602 54.3829 24.2962C53.5009 23.6322 52.8133 22.6759 52.3198 21.4259C51.8264 20.1759 51.5797 18.7883 51.5797 17.0219C51.5797 15.2554 51.8307 13.8309 52.3326 12.7469C52.8345 11.6615 53.491 10.8883 54.2992 10.4257C55.1088 9.96318 56.0021 9.73191 56.9847 9.73191C58.0452 9.73191 58.981 9.97027 59.7935 10.447C60.6045 10.9237 61.2284 11.5239 61.6665 12.2447C62.1046 12.9668 62.3216 13.6734 62.3216 14.3658V20.3363L62.3201 20.3348ZM13.1807 15.3774C13.1807 15.2753 13.2502 15.1859 13.3509 15.1618C14.9673 14.7929 15.2976 13.9898 15.2976 12.8477C15.2976 6.75946 10.3507 13.4734 10.3507 8.93169C10.3507 5.84006 15.9328 10.342 15.9328 7.69447C15.9328 5.99755 12.8178 4.67945 12.028 4.10483C11.5218 3.73593 10.9306 3.04354 11.4736 2.43628C11.9259 1.93118 12.6377 2.02908 12.9922 2.5881C13.3991 3.23083 13.7933 4.1857 14.6638 4.09064C16.7297 3.86504 15.5585 1.25298 14.5788 0.496739C13.4289 -0.391449 11.7288 0.0455505 10.6314 0.800369C9.43471 1.62187 9.08166 3.16556 7.91616 4.00976C7.15618 4.55885 6.08426 4.73621 5.18533 5.02139C3.39738 5.59034 1.61511 6.58211 0.658044 8.13856C-0.48902 10.0043 -0.148729 12.7143 1.77533 14.0437C2.97911 14.8752 7.1264 15.5321 7.14484 12.7725C7.15192 11.6828 6.68402 10.5931 4.30483 12.0106C2.47576 13.1016 2.31412 9.54888 3.00747 8.70751C4.21834 7.23902 4.45654 10.1703 6.47843 9.24667C8.22951 8.44645 2.73807 6.19618 8.65204 6.34516C11.8465 6.42462 6.82014 8.55712 8.25645 11.6715C9.34396 14.0295 12.883 10.6059 11.1603 13.3655C10.9745 13.6635 10.725 14.0707 10.4995 14.4396C10.1493 15.0142 10.1493 15.7449 10.4995 16.3181C10.725 16.687 10.9731 17.0928 11.1603 17.3922C12.8844 20.1504 9.34396 16.7267 8.25645 19.0848C6.82014 22.1992 11.8465 24.3317 8.65204 24.4111C2.73807 24.5601 8.22809 22.3098 6.47843 21.5096C4.45796 20.586 4.21834 23.5173 3.00747 22.0488C2.31412 21.2074 2.47576 17.6561 4.30483 18.7457C6.68402 20.1632 7.15192 19.0721 7.14484 17.9838C7.12499 15.2242 2.97911 15.8811 1.77533 16.7126C-0.148729 18.042 -0.48902 20.752 0.658044 22.6177C1.61511 24.1742 3.3988 25.166 5.18533 25.7349C6.08426 26.0215 7.15618 26.1974 7.91616 26.748C9.08166 27.5907 9.43471 29.1358 10.6314 29.9573C11.7303 30.7107 13.4289 31.1492 14.5788 30.261C15.5585 29.5033 16.7297 26.8913 14.6638 26.6657C13.7933 26.5706 13.3991 27.5269 12.9922 28.1682C12.6377 28.7272 11.9245 28.8251 11.4736 28.32C10.9306 27.7113 11.5204 27.0204 12.028 26.6515C12.8178 26.0783 15.9328 24.7588 15.9328 23.0618C15.9328 20.4143 10.3507 24.9148 10.3507 21.8246C10.3507 17.2843 15.2976 23.9968 15.2976 17.9086C15.2976 16.7651 14.9673 15.962 13.3509 15.5945C13.2516 15.5718 13.1807 15.4824 13.1807 15.3803V15.3774ZM20.3665 15.3774C20.3665 15.4796 20.2957 15.569 20.1964 15.5931C18.58 15.962 18.2511 16.7651 18.2511 17.9072C18.2511 23.9954 23.1981 17.2815 23.1981 21.8232C23.1981 24.9148 17.6159 20.4129 17.6159 23.0604C17.6159 24.7573 20.7309 26.0754 21.5207 26.6501C22.0269 27.0189 22.6181 27.7113 22.0751 28.3186C21.6228 28.8237 20.911 28.7244 20.5565 28.1668C20.1496 27.5241 19.7554 26.5692 18.8849 26.6642C16.819 26.8898 17.9902 29.5019 18.9699 30.2581C20.1198 31.1463 21.8199 30.7093 22.9173 29.9545C24.114 29.133 24.4671 27.5893 25.6325 26.7451C26.3925 26.196 27.4644 26.0187 28.3634 25.7335C30.1499 25.1645 31.9336 24.1742 32.8907 22.6163C34.0377 20.7506 33.6989 18.0406 31.7734 16.7111C30.5696 15.8797 26.4223 15.2228 26.4039 17.9824C26.3954 19.0721 26.8647 20.1617 29.2439 18.7443C31.0729 17.6532 31.2346 21.206 30.5427 22.0474C29.3318 23.5159 29.0936 20.5846 27.0717 21.5082C25.3206 22.3084 30.8106 24.5573 24.8967 24.4097C21.7022 24.3303 26.7286 22.1978 25.2923 19.0834C24.2047 16.7253 20.6657 20.149 22.3884 17.3893C22.5742 17.0914 22.8237 16.6842 23.0492 16.3153C23.3994 15.7407 23.3994 15.01 23.0492 14.4368C22.8237 14.0679 22.5756 13.6621 22.3884 13.3627C20.6643 10.6045 24.2047 14.0281 25.2923 11.67C26.7286 8.5557 21.7022 6.4232 24.8967 6.34374C30.8106 6.19476 25.3206 8.44503 27.0717 9.24525C29.0922 10.1689 29.3318 7.2376 30.5427 8.70609C31.236 9.54746 31.0744 13.0988 29.2439 12.0091C26.8647 10.5917 26.3968 11.6828 26.4039 12.771C26.4223 15.5307 30.5696 14.8738 31.7734 14.0423C33.6974 12.7129 34.0377 10.0029 32.8907 8.13714C31.9336 6.58069 30.1499 5.58892 28.3634 5.01997C27.4644 4.73337 26.3925 4.55743 25.6325 4.00693C24.4671 3.16414 24.114 1.61903 22.9173 0.797531C21.8185 0.0441318 20.1198 -0.394287 18.9699 0.493901C17.9902 1.25156 16.819 3.86362 18.8849 4.08922C19.7554 4.18428 20.1496 3.22799 20.5565 2.58668C20.911 2.02766 21.6242 1.92976 22.0751 2.43486C22.6181 3.04354 22.0283 3.73451 21.5207 4.10341C20.7309 4.67662 17.6159 5.99613 17.6159 7.69305C17.6159 10.3406 23.1981 5.84006 23.1981 8.93027C23.1981 13.4705 18.2511 6.75804 18.2511 12.8462C18.2511 13.9898 18.58 14.7929 20.1964 15.1604C20.2957 15.1831 20.3665 15.2724 20.3665 15.3746V15.3774Z" fill="#232425"/>
</svg>
